HIERARCHY
ROOT Hips
{
  OFFSET 3.13124 94.3669 -3.18751
  CHANNELS  6 Xposition Yposition Zposition Zrotation Xrotation Yrotation
  JOINT LeftUpLeg
  {
    OFFSET 8.64259 1.95398 -2.38835
    CHANNELS 3 Zrotation Xrotation Yrotation
    JOINT LeftLeg
    {
      OFFSET 43.7702 0 0
      CHANNELS 3 Zrotation Xrotation Yrotation
      JOINT LeftFoot
      {
        OFFSET 40.6238 0 0
        CHANNELS 3 Zrotation Xrotation Yrotation
        JOINT LeftToeBase
        {
          OFFSET 12.7242 0 0
          CHANNELS 3 Zrotation Xrotation Yrotation
          End Site
          {
            OFFSET 0 0 0
          }
        }
      }
    }
  }
  JOINT RightUpLeg
  {
    OFFSET -8.2249 1.95398 -2.59336
    CHANNELS 3 Zrotation Xrotation Yrotation
    JOINT RightLeg
    {
      OFFSET 43.5653 0 0
      CHANNELS 3 Zrotation Xrotation Yrotation
      JOINT RightFoot
      {
        OFFSET 40.6238 0 0
        CHANNELS 3 Zrotation Xrotation Yrotation
        JOINT RightToeBase
        {
          OFFSET 12.7242 0 0
          CHANNELS 3 Zrotation Xrotation Yrotation
          End Site
          {
            OFFSET 0 0 0
          }
        }
      }
    }
  }
  JOINT Spine
  {
    OFFSET 0.165834 0.87714 6.61349
    CHANNELS 3 Zrotation Xrotation Yrotation
    JOINT Spine1
    {
      OFFSET 7.38962 1.71661e-005 0
      CHANNELS 3 Zrotation Xrotation Yrotation
      JOINT Spine2
      {
        OFFSET 11.9445 1.14441e-005 0
        CHANNELS 3 Zrotation Xrotation Yrotation
        JOINT Spine3
        {
          OFFSET 14.7254 4.19617e-005 0
          CHANNELS 3 Zrotation Xrotation Yrotation
          JOINT Spine4
          {
            OFFSET 10.9679 0 0
            CHANNELS 3 Zrotation Xrotation Yrotation
            JOINT RightShoulder
            {
              OFFSET 2.46616 -1.6653 3.69651
              CHANNELS 3 Zrotation Xrotation Yrotation
              JOINT RightArm
              {
                OFFSET 13.0012 0 0
                CHANNELS 3 Zrotation Xrotation Yrotation
                JOINT RightForeArm
                {
                  OFFSET 28.7848 1.52588e-005 0
                  CHANNELS 3 Zrotation Xrotation Yrotation
                  JOINT RightHand
                  {
                    OFFSET 26.5688 1.52588e-005 0
                    CHANNELS 3 Zrotation Xrotation Yrotation
                    End Site
                    {
                      OFFSET 0 0 0
                    }
                  }
                }
              }
            }
            JOINT LeftShoulder
            {
              OFFSET 2.38034 -1.29275 -3.75231
              CHANNELS 3 Zrotation Xrotation Yrotation
              JOINT LeftArm
              {
                OFFSET 16.3182 6.10352e-005 0
                CHANNELS 3 Zrotation Xrotation Yrotation
                JOINT LeftForeArm
                {
                  OFFSET 27.0901 0 0
                  CHANNELS 3 Zrotation Xrotation Yrotation
                  JOINT LeftHand
                  {
                    OFFSET 24.5451 1.52588e-005 0
                    CHANNELS 3 Zrotation Xrotation Yrotation
                    End Site
                    {
                      OFFSET 0 0 0
                    }
                  }
                }
              }
            }
            JOINT Neck
            {
              OFFSET 5.0226 -0.0266342 0
              CHANNELS 3 Zrotation Xrotation Yrotation
              JOINT Head
              {
                OFFSET 6.69363 2.86102e-005 0
                CHANNELS 3 Zrotation Xrotation Yrotation
                End Site
                {
                  OFFSET 0 0 0
                }
              }
            }
          }
        }
      }
    }
  }
}
MOTION
Frames:	15
Frame Time:	0.0333333
-0.238446 97.1673 -15.2924 66.4836 -89.9939 66.5913 -170.694 3.10497 91.5446 -9.63163 9.03104 2.67472 63.7337 0.887901 0.442975 28.7808 5.89478e-006 1.33956e-006 -179.376 2.05991 91.4334 -7.90795 0.816067 0.0304574 62.8772 -1.15758 -0.583976 28.7808 1.45187e-005 2.83075e-005 0.0086248 6.35588 -90.1083 14.1825 2.66471e-006 -0.00778773 2.51156 1.8881e-006 -0.0068571 -20.0236 -2.06185e-006 -0.0154978 -0.0109417 1.94126e-018 -0.0154998 100.856 -18.819 -85.3987 14.0965 48.1314 -41.0709 -3.26704 0.00468262 -4.91075 -5.37983 -0.320009 -0.0162409 -78.9881 -21.9735 94.3315 8.2765 -40.3274 -20.1673 3.909 41.7301 -9.241 -1.39371 -0.040915 1.43422 1.76555 -0.0031671 0.00636254 -7.41983 -0.00427131 -0.00741951 
-0.250497 97.1449 -15.2946 42.5143 -89.9437 42.6095 -170.699 3.18062 91.5272 -9.7007 9.0656 2.67682 63.7769 0.98647 0.498814 28.7808 5.89478e-006 1.33956e-006 -179.408 2.67257 91.4351 -9.07038 0.759623 0.0304569 63.2492 -1.40783 -0.734591 28.7808 1.45187e-005 2.83075e-005 0.00753329 6.35611 -90.0938 14.1825 2.66471e-006 -0.00778773 2.51156 1.8881e-006 -0.0068571 -20.0236 -2.06185e-006 -0.0154978 -0.0109417 -6.21202e-018 -0.0154998 100.963 -18.6771 -85.1618 14.1744 47.9669 -41.0406 -3.26704 0.00468262 -4.91075 -5.37983 -0.320009 -0.0162409 -78.9655 -21.9943 94.3673 8.28221 -40.3476 -20.2502 3.87259 41.8308 -9.19291 -1.21009 -0.0317959 1.41489 1.94776 -0.0534104 0.10548 -7.55478 -0.0697842 -0.119661 
-0.26007 97.1465 -15.2947 16.5034 -89.9278 16.5352 -170.731 3.24499 91.4698 -9.78957 8.96441 2.65984 63.7486 0.892889 0.442992 28.7808 5.89478e-006 1.33956e-006 -179.439 2.84311 91.3809 -9.36768 0.707477 0.0304566 63.4219 -1.40226 -0.734599 28.7808 1.45187e-005 2.83075e-005 0.00597214 6.35637 -90.0739 14.1825 2.66471e-006 -0.00778773 2.51156 1.8881e-006 -0.0068571 -20.0236 -2.06185e-006 -0.0154978 -0.0109417 -3.10601e-018 -0.0154998 100.979 -18.6751 -85.1654 14.062 48.1406 -40.9339 -3.26704 0.00468262 -4.91075 -5.37983 -0.320009 -0.0162409 -78.9032 -22.0105 94.4578 8.28046 -40.3137 -20.3246 3.78937 41.7668 -9.18831 -1.14579 -0.0270132 1.55802 2.00315 -0.0927259 0.155707 -7.55852 -0.0877016 -0.13326 
-0.285444 97.1763 -15.2684 -146.609 -89.9723 -146.498 -170.657 3.07659 91.5822 -9.65095 9.0392 2.66256 63.7179 0.946173 0.475518 28.7808 5.89478e-006 1.33956e-006 -179.351 1.95318 91.4636 -7.76805 0.835935 0.0304575 62.8269 -1.21161 -0.615115 28.7808 1.45187e-005 2.83075e-005 0.00826237 6.35594 -90.1048 14.1825 2.66471e-006 -0.00778773 2.51156 1.8881e-006 -0.0068571 -20.0236 -2.06185e-006 -0.0154978 -0.0109417 0 -0.0154998 100.928 -18.7304 -85.1463 14.0296 48.1924 -40.8997 -3.26704 0.00468262 -4.91075 -5.37983 -0.320009 -0.0162409 -78.9225 -21.9087 94.5282 8.22585 -40.3089 -20.4356 3.84648 41.9166 -9.27455 -1.08396 -0.0206611 1.83702 1.77 -0.0947255 0.094943 -7.39545 -0.059969 -0.13008 
-0.303831 97.1586 -15.2582 -132.042 -89.976 -131.963 -170.667 3.11255 91.563 -9.72522 8.99456 2.66131 63.7609 0.826962 0.407103 28.7808 5.89478e-006 1.33956e-006 -179.384 2.35705 91.446 -8.59626 0.738202 0.0304568 63.1616 -1.3165 -0.681107 28.7808 1.45187e-005 2.83075e-005 0.00713398 6.35616 -90.09 14.1825 5.25498e-005 -0.00778773 2.51156 5.10456e-005 -0.0068571 -20.0236 4.95728e-005 -0.0154978 -0.0109416 5.15349e-005 -0.0154998 100.952 -18.6372 -85.0855 14.0016 48.241 -40.8738 -3.26704 0.00468262 -4.91075 -5.37983 -0.320009 -0.0162409 -78.9425 -22.0228 94.4984 8.34572 -40.4275 -20.5364 3.89018 42.1439 -9.29715 -0.848876 -0.00677957 1.91971 1.80465 -0.0740288 0.227844 -7.47315 -0.0635115 -0.229741 
-0.328273 97.1438 -15.2477 -82.9854 -89.9153 -82.8941 -170.667 3.10829 91.5801 -9.68531 8.94588 2.65859 63.7947 0.933503 0.46957 28.7808 5.89478e-006 1.33956e-006 -179.379 2.41127 91.4741 -8.65003 0.663454 0.0305078 63.1702 -1.38002 -0.716922 28.7808 1.45187e-005 2.83075e-005 0.00740105 6.35602 -90.0998 14.1825 -0.000982003 -0.00778773 2.51156 -0.000971094 -0.0068571 -20.0236 -0.00102854 -0.0154978 -0.0109419 -0.00102771 -0.0154998 100.984 -18.6026 -85.1101 13.995 48.2787 -40.9147 -3.26704 0.00468262 -4.91075 -5.37983 -0.320009 -0.0162409 -78.9051 -21.9583 94.4855 8.31691 -40.5334 -20.5933 4.02048 42.1654 -9.24233 -1.05177 -0.0245523 1.3473 1.78433 -0.0570936 0.197474 -7.51879 -0.0368592 -0.229368 
-0.359499 97.1701 -15.2385 -133.328 -89.8578 -133.253 -170.617 3.05169 91.6073 -9.80967 8.99732 2.65671 63.7834 0.859322 0.424401 28.7808 5.89478e-006 1.33956e-006 -179.368 2.30914 91.4728 -8.69185 0.674948 0.0311179 63.2231 -1.29632 -0.67135 28.7808 1.45187e-005 2.83075e-005 -0.00895938 6.35639 -90.0722 14.1825 -0.0281618 -0.00778773 2.51156 -0.0278152 -0.0068571 -20.0236 -0.0291289 -0.0154978 -0.0109495 -0.029123 -0.0154998 100.91 -18.6613 -85.267 13.9536 48.385 -40.9644 -3.26704 0.00468262 -4.91075 -5.37983 -0.320009 -0.0162409 -78.9194 -21.8736 94.4843 8.48248 -40.4817 -20.4783 3.85458 42.0821 -9.29208 -0.61176 0.0042375 1.79438 1.46002 -0.0205616 0.0371216 -7.2478 -0.0134485 -0.144647 
-0.388057 97.1613 -15.2357 -120.518 -89.7968 -120.428 -170.61 3.01605 91.6346 -9.76318 8.90873 2.65547 63.8092 0.914118 0.45709 28.7808 5.89478e-006 1.33956e-006 -179.354 2.30349 91.5068 -8.682 0.637629 0.0290703 63.2192 -1.29381 -0.669148 28.7808 1.45187e-005 2.83075e-005 -0.0107829 6.35625 -90.0838 14.1822 -0.0347235 -0.00778773 2.51127 -0.0345998 -0.0068571 -20.0239 -0.0335409 -0.0154978 -0.011243 -0.0335421 -0.0154998 100.907 -18.5404 -85.2908 14.0176 48.2964 -41.043 -3.26704 0.00468262 -4.91075 -5.37983 -0.320009 -0.0162409 -78.8877 -21.9181 94.5526 8.5163 -40.5432 -20.5896 3.83831 41.9992 -9.31341 -0.406459 0.0153765 1.79665 1.41881 -0.00610239 0.108791 -7.27237 -0.0122565 -0.262375 
-0.413542 97.1456 -15.2385 -114.149 -89.7389 -114.051 -170.608 3.00522 91.6542 -9.74954 8.81029 2.65748 63.8455 0.820881 0.405259 28.7808 5.89478e-006 1.33956e-006 -179.352 2.36863 91.531 -8.8064 0.54076 0.0259813 63.2642 -1.39283 -0.726198 28.7808 1.45187e-005 2.83075e-005 -0.00888464 6.35614 -90.0914 14.1768 -0.0377575 -0.00778773 2.50584 -0.037876 -0.0068571 -20.0293 -0.0299658 -0.0155215 -0.0166778 -0.0299616 -0.0155234 100.92 -18.3954 -85.2576 14.0955 48.182 -41.1253 -3.26704 0.00468262 -4.91075 -5.37983 -0.320009 -0.0162409 -78.8835 -21.9463 94.5703 8.45478 -40.6266 -20.7591 3.90282 42.0664 -9.32366 -0.223718 0.0247459 1.77075 1.44083 -0.036205 0.179079 -7.35336 -0.0415895 -0.342027 
-0.444272 97.1753 -15.2421 -121.85 -89.6429 -121.716 -170.554 2.91877 91.7225 -9.74044 8.85239 2.66596 63.8001 0.868761 0.43185 28.7808 5.89478e-006 1.33956e-006 -179.299 1.81369 91.5718 -7.8398 0.509232 0.023122 62.9022 -1.2837 -0.658477 28.7808 1.45187e-005 2.83075e-005 -0.0093433 6.35572 -90.0945 14.1618 -0.0398202 -0.00778773 2.49086 -0.0402524 -0.0068571 -20.0443 -0.0316622 -0.0169459 -0.0316528 -0.0316695 -0.016944 100.88 -18.5074 -85.35 14.0917 48.2524 -41.2541 -3.26704 0.00468262 -4.91075 -5.37983 -0.320009 -0.0162409 -78.8908 -21.8291 94.5503 8.45351 -40.6037 -20.7816 3.83246 41.9927 -9.32557 0.00638159 0.0390894 1.86732 1.33453 -0.0633461 0.0984612 -7.27272 -0.0570569 -0.363195 
-0.472443 97.1661 -15.2718 -108.649 -89.5034 -108.469 -170.519 2.95172 91.7773 -9.73979 8.70036 2.63071 63.8679 0.975014 0.493212 28.7808 5.89478e-006 1.33956e-006 -179.295 2.32658 91.64 -8.7502 0.40031 0.0206626 63.1502 -1.38983 -0.723403 28.7808 1.45187e-005 2.83075e-005 -0.00309471 6.3505 -90.0886 14.1728 -0.0409297 -0.00773669 2.50184 -0.0416983 -0.006772 -20.0333 -0.0178894 -0.0181735 -0.0206739 -0.0178851 -0.0181684 100.826 -18.4783 -85.4903 14.1129 48.2 -41.2365 -3.26704 0.00468262 -4.91075 -5.37983 -0.320009 -0.0162409 -78.8793 -21.7738 94.5704 8.44496 -40.5896 -20.7918 3.80491 41.8225 -9.38445 0.00437085 0.0440538 2.1128 1.10186 -0.03632 0.12473 -7.03751 -0.0344357 -0.412831 
-0.492136 97.1652 -15.2636 -116.537 -89.5566 -116.414 -170.546 2.92557 91.7393 -9.7619 8.7112 2.64807 63.8212 0.786129 0.384438 28.7808 5.89478e-006 1.33956e-006 -179.303 2.05117 91.5888 -8.30584 0.408046 0.0183804 63.0762 -1.32947 -0.687581 28.7808 1.45187e-005 2.83075e-005 -0.00919742 6.35544 -90.0873 14.1586 -0.0411041 -0.00637053 2.48767 -0.0421833 -0.00491113 -20.0475 -0.0296593 -0.0159547 -0.0348374 -0.029648 -0.0159546 100.847 -18.3961 -85.4319 14.1555 48.1386 -41.2821 -3.26704 0.00468262 -4.91075 -5.37983 -0.320009 -0.0162409 -78.9251 -21.8093 94.479 8.42373 -40.5431 -20.7971 3.65715 41.8795 -9.2415 0.562795 0.0700055 1.88904 1.17918 -0.0682352 0.264187 -7.135 -0.0820429 -0.436676 
-0.515159 97.1819 -15.2815 -115.07 -89.4868 -114.917 -170.503 2.92185 91.7912 -9.77653 8.68372 2.6345 63.8148 0.746483 0.361105 28.7808 5.89478e-006 1.33956e-006 -179.277 1.98404 91.627 -8.17741 0.405402 0.016682 63.0111 -1.26354 -0.649046 28.7808 1.45187e-005 2.83075e-005 -0.00782708 6.36357 -90.0782 14.1578 -0.0403614 0.000138268 2.48691 -0.0416766 0.00134059 -20.0482 -0.0265179 -0.00820475 -0.0356066 -0.0265235 -0.00822541 100.833 -18.5372 -85.4716 14.1747 48.1263 -41.3474 -3.26704 0.00468262 -4.91075 -5.37983 -0.320009 -0.0162409 -78.9194 -21.6751 94.4743 8.33065 -40.5031 -20.816 3.65936 41.7121 -9.26312 0.239899 0.0551968 2.01395 1.01419 -0.0571557 0.131946 -6.93826 -0.0612027 -0.314959 
-0.547566 97.2039 -15.3028 -118.296 -89.4222 -118.167 -170.458 3.02108 91.8002 -10.0628 8.64543 2.62615 63.8052 0.631928 0.290197 28.7808 5.89478e-006 1.33956e-006 -179.276 2.22353 91.6205 -8.75458 0.397712 0.0156478 63.2303 -1.22601 -0.633804 28.7808 1.45187e-005 2.83075e-005 -0.00469792 6.36652 -90.0438 14.1407 -0.0387199 -0.0354211 2.46972 -0.0401476 -0.0344174 -20.0654 -0.010613 -0.0404863 -0.0527772 -0.0106034 -0.0404775 100.834 -18.2922 -85.4859 14.2089 48.0152 -41.2544 -3.26704 0.00468262 -4.91075 -5.37983 -0.320009 -0.0162409 -78.9873 -21.9467 94.3369 8.59731 -40.4928 -20.6108 3.4653 41.3892 -9.26076 0.495793 0.0717271 2.10442 0.959005 -0.0208353 0.516832 -6.81265 -0.074347 -0.533801 
-0.553685 97.1539 -15.3243 -110.187 -89.4296 -110.046 -170.502 2.97365 91.7915 -9.79775 8.5818 2.61025 63.8566 0.801875 0.392841 28.7808 5.89478e-006 1.33956e-006 -179.306 2.48397 91.6949 -9.10854 0.233509 0.00537781 63.3126 -1.41062 -0.737946 28.7808 1.45187e-005 2.83075e-005 -0.00797795 6.35737 -90.0705 14.1592 -0.0361976 -0.00791531 2.48825 -0.0375659 -0.00666514 -20.0469 -0.0246751 -0.0160623 -0.0342392 -0.0246757 -0.0160757 100.787 -18.5343 -85.5819 14.2195 48.0312 -41.3337 -3.26704 0.00468262 -4.91075 -5.37983 -0.320009 -0.0162409 -78.9302 -21.776 94.4581 8.35824 -40.4462 -20.7115 3.54404 41.4358 -9.24852 0.429948 0.0646407 1.9669 0.949093 0.0115118 0.341009 -6.87546 -0.0197429 -0.404213 
